<svg width="53" height="18" viewBox="0 0 53 18" fill="none" xmlns="http://www.w3.org/2000/svg">
<path d="M50.9668 14.1523C50.9668 13.7786 51.0625 13.5166 51.2539 13.3662C51.4499 13.2113 51.6868 13.1338 51.9648 13.1338C52.2428 13.1338 52.4798 13.2113 52.6758 13.3662C52.8763 13.5166 52.9766 13.7786 52.9766 14.1523C52.9766 14.5169 52.8763 14.7812 52.6758 14.9453C52.4798 15.1048 52.2428 15.1846 51.9648 15.1846C51.6868 15.1846 51.4499 15.1048 51.2539 14.9453C51.0625 14.7812 50.9668 14.5169 50.9668 14.1523Z" fill="black"/>
<path d="M46.3936 7.28906C47.2412 7.28906 47.8792 7.50781 48.3076 7.94531C48.7406 8.38281 48.957 9.08464 48.957 10.0508V15H47.3506V10.3379C47.3506 9.76367 47.2389 9.33073 47.0156 9.03906C46.7923 8.7474 46.4528 8.60156 45.9971 8.60156C45.359 8.60156 44.8988 8.80664 44.6162 9.2168C44.3382 9.6224 44.1992 10.2126 44.1992 10.9873V15H42.5928V10.3379C42.5928 9.95508 42.5426 9.63607 42.4424 9.38086C42.3467 9.12109 42.1986 8.92741 41.998 8.7998C41.7975 8.66764 41.5446 8.60156 41.2393 8.60156C40.7972 8.60156 40.444 8.70182 40.1797 8.90234C39.9199 9.10286 39.7331 9.39909 39.6191 9.79102C39.5052 10.1784 39.4482 10.6546 39.4482 11.2197V15H37.8418V7.43262H39.0928L39.3184 8.45117H39.4072C39.5622 8.18685 39.7536 7.97038 39.9814 7.80176C40.2139 7.62858 40.4714 7.50098 40.7539 7.41895C41.0365 7.33236 41.3304 7.28906 41.6357 7.28906C42.2008 7.28906 42.6771 7.38932 43.0645 7.58984C43.4518 7.78581 43.7412 8.08659 43.9326 8.49219H44.0557C44.2926 8.08203 44.623 7.77897 45.0469 7.58301C45.4707 7.38704 45.9196 7.28906 46.3936 7.28906Z" fill="black"/>
<path d="M35.5381 7.43262V15H33.9316V7.43262H35.5381ZM34.7451 4.53418C34.9912 4.53418 35.2031 4.60026 35.3809 4.73242C35.5632 4.86458 35.6543 5.09245 35.6543 5.41602C35.6543 5.73503 35.5632 5.96289 35.3809 6.09961C35.2031 6.23177 34.9912 6.29785 34.7451 6.29785C34.4899 6.29785 34.2734 6.23177 34.0957 6.09961C33.9225 5.96289 33.8359 5.73503 33.8359 5.41602C33.8359 5.09245 33.9225 4.86458 34.0957 4.73242C34.2734 4.60026 34.4899 4.53418 34.7451 4.53418Z" fill="black"/>
<path d="M31.6348 15H30.0215V4.36328H31.6348V15Z" fill="black"/>
<path d="M25.5713 6.25684C25.0928 6.25684 24.6644 6.34342 24.2861 6.5166C23.9124 6.68978 23.5957 6.94043 23.3359 7.26855C23.0762 7.59212 22.8779 7.98633 22.7412 8.45117C22.6045 8.91146 22.5361 9.43099 22.5361 10.0098C22.5361 10.7845 22.6455 11.4521 22.8643 12.0127C23.083 12.5687 23.4157 12.9971 23.8623 13.2979C24.3089 13.5941 24.874 13.7422 25.5576 13.7422C25.9814 13.7422 26.3939 13.7012 26.7949 13.6191C27.196 13.5371 27.6107 13.4255 28.0391 13.2842V14.6787C27.6335 14.8382 27.2233 14.9544 26.8086 15.0273C26.3939 15.1003 25.9154 15.1367 25.373 15.1367C24.3522 15.1367 23.5046 14.9248 22.8301 14.501C22.1602 14.0771 21.6589 13.4801 21.3262 12.71C20.998 11.9398 20.834 11.0374 20.834 10.0029C20.834 9.24642 20.9388 8.55371 21.1484 7.9248C21.3581 7.2959 21.6634 6.75358 22.0645 6.29785C22.4655 5.83757 22.96 5.48438 23.5479 5.23828C24.1403 4.98763 24.8171 4.8623 25.5781 4.8623C26.0794 4.8623 26.5716 4.91927 27.0547 5.0332C27.5423 5.14258 27.9935 5.2998 28.4082 5.50488L27.834 6.8584C27.4876 6.69434 27.1253 6.55306 26.7471 6.43457C26.3688 6.31608 25.9769 6.25684 25.5713 6.25684Z" fill="black"/>
<path d="M18 9C18 13.9706 13.9706 18 9 18C4.02944 18 0 13.9706 0 9C0 4.02944 4.02944 0 9 0C13.9706 0 18 4.02944 18 9Z" fill="white"/>
<path fill-rule="evenodd" clip-rule="evenodd" d="M9 17C13.4183 17 17 13.4183 17 9C17 4.58172 13.4183 1 9 1C4.58172 1 1 4.58172 1 9C1 13.4183 4.58172 17 9 17ZM9 18C13.9706 18 18 13.9706 18 9C18 4.02944 13.9706 0 9 0C4.02944 0 0 4.02944 0 9C0 13.9706 4.02944 18 9 18Z" fill="black"/>
</svg>
